<?xml version="1.0" encoding="UTF-8" standalone="no"?>
<!DOCTYPE svg PUBLIC "-//W3C//DTD SVG 1.1//EN"
 "http://www.w3.org/Graphics/SVG/1.1/DTD/svg11.dtd">
<!-- Generated by graphviz version 2.36.0 (20140111.2315)
 -->
<!-- Title: interactions Pages: 1 -->
<svg width="306pt" height="308pt"
 viewBox="0.00 0.00 305.88 308.00" xmlns="http://www.w3.org/2000/svg" xmlns:xlink="http://www.w3.org/1999/xlink">
<g id="graph0" class="graph" transform="scale(1 1) rotate(0) translate(4 304)">
<title>interactions</title>
<polygon fill="white" stroke="none" points="-4,4 -4,-304 301.883,-304 301.883,4 -4,4"/>
<!-- CLIENT -->
<g id="node1" class="node"><title>CLIENT</title>
<ellipse fill="none" stroke="black" cx="82.8827" cy="-282" rx="42.3701" ry="18"/>
<text text-anchor="middle" x="82.8827" y="-278.3" font-family="Times,serif" font-size="14.00">CLIENT</text>
</g>
<!-- SERVEUR -->
<g id="node2" class="node"><title>SERVEUR</title>
<ellipse fill="none" stroke="black" cx="82.8827" cy="-194" rx="50.5427" ry="18"/>
<text text-anchor="middle" x="82.8827" y="-190.3" font-family="Times,serif" font-size="14.00">SERVEUR</text>
</g>
<!-- CLIENT&#45;&gt;SERVEUR -->
<g id="edge1" class="edge"><title>CLIENT&#45;&gt;SERVEUR</title>
<path fill="none" stroke="black" d="M82.8827,-263.597C82.8827,-251.746 82.8827,-235.817 82.8827,-222.292"/>
<polygon fill="black" stroke="black" points="86.3828,-222.084 82.8827,-212.084 79.3828,-222.084 86.3828,-222.084"/>
<text text-anchor="middle" x="143.883" y="-234.3" font-family="Times,serif" font-size="14.00">1. commande(hotdog)</text>
</g>
<!-- CUISINIER -->
<g id="node3" class="node"><title>CUISINIER</title>
<ellipse fill="none" stroke="black" cx="82.8827" cy="-106" rx="53.4184" ry="18"/>
<text text-anchor="middle" x="82.8827" y="-102.3" font-family="Times,serif" font-size="14.00">CUISINIER</text>
</g>
<!-- SERVEUR&#45;&gt;CUISINIER -->
<g id="edge2" class="edge"><title>SERVEUR&#45;&gt;CUISINIER</title>
<path fill="none" stroke="black" d="M82.8827,-175.597C82.8827,-163.746 82.8827,-147.817 82.8827,-134.292"/>
<polygon fill="black" stroke="black" points="86.3828,-134.084 82.8827,-124.084 79.3828,-134.084 86.3828,-134.084"/>
<text text-anchor="middle" x="114.383" y="-146.3" font-family="Times,serif" font-size="14.00">1.1. hotdog</text>
</g>
<!-- FRIGO -->
<g id="node4" class="node"><title>FRIGO</title>
<ellipse fill="none" stroke="black" cx="82.8827" cy="-18" rx="37.0701" ry="18"/>
<text text-anchor="middle" x="82.8827" y="-14.3" font-family="Times,serif" font-size="14.00">FRIGO</text>
</g>
<!-- CUISINIER&#45;&gt;FRIGO -->
<g id="edge3" class="edge"><title>CUISINIER&#45;&gt;FRIGO</title>
<path fill="none" stroke="black" d="M38.913,-95.5414C25.3571,-90.339 11.9008,-82.322 3.88274,-70 -8.41869,-51.0953 15.5675,-37.7415 40.2564,-29.4533"/>
<polygon fill="black" stroke="black" points="41.5271,-32.7237 50.0421,-26.4193 39.4541,-26.0377 41.5271,-32.7237"/>
<text text-anchor="middle" x="72.3827" y="-58.3" font-family="Times,serif" font-size="14.00">1.1.a utilise(SAUCISSE)</text>
</g>
<!-- CUISINIER&#45;&gt;FRIGO -->
<g id="edge4" class="edge"><title>CUISINIER&#45;&gt;FRIGO</title>
<path fill="none" stroke="black" d="M116.941,-92.0853C126.381,-86.7481 135.506,-79.5247 140.883,-70 149.003,-55.616 135.878,-43.2659 120.074,-34.323"/>
<polygon fill="black" stroke="black" points="121.628,-31.1866 111.136,-29.7139 118.42,-37.4081 121.628,-31.1866"/>
<text text-anchor="middle" x="220.383" y="-58.3" font-family="Times,serif" font-size="14.00">1.1.b. utilise(MOUTARDE)</text>
</g>
</g>
</svg>
