<?xml version="1.0" encoding="UTF-8" standalone="no"?>
<!DOCTYPE svg PUBLIC "-//W3C//DTD SVG 1.1//EN"
 "http://www.w3.org/Graphics/SVG/1.1/DTD/svg11.dtd">
<!-- Generated by graphviz version 2.36.0 (20140111.2315)
 -->
<!-- Title: interactions Pages: 1 -->
<svg width="307pt" height="132pt"
 viewBox="0.00 0.00 307.00 132.00" xmlns="http://www.w3.org/2000/svg" xmlns:xlink="http://www.w3.org/1999/xlink">
<g id="graph0" class="graph" transform="scale(1 1) rotate(0) translate(4 128)">
<title>interactions</title>
<polygon fill="white" stroke="none" points="-4,4 -4,-128 303,-128 303,4 -4,4"/>
<!-- CUISINIER -->
<g id="node1" class="node"><title>CUISINIER</title>
<ellipse fill="none" stroke="black" cx="100" cy="-106" rx="53.4184" ry="18"/>
<text text-anchor="middle" x="100" y="-102.3" font-family="Times,serif" font-size="14.00">CUISINIER</text>
</g>
<!-- FRIGO -->
<g id="node2" class="node"><title>FRIGO</title>
<ellipse fill="none" stroke="black" cx="37" cy="-18" rx="37.0701" ry="18"/>
<text text-anchor="middle" x="37" y="-14.3" font-family="Times,serif" font-size="14.00">FRIGO</text>
</g>
<!-- CUISINIER&#45;&gt;FRIGO -->
<g id="edge1" class="edge"><title>CUISINIER&#45;&gt;FRIGO</title>
<path fill="none" stroke="black" d="M86.3593,-88.4602C81.7105,-82.6901 76.5425,-76.1254 72,-70 65.7333,-61.5496 59.1371,-52.0979 53.3815,-43.6489"/>
<polygon fill="black" stroke="black" points="56.2342,-41.6192 47.7369,-35.2911 50.4333,-45.5371 56.2342,-41.6192"/>
<text text-anchor="middle" x="106.5" y="-58.3" font-family="Times,serif" font-size="14.00">1. inventaire</text>
</g>
<!-- FOURNISSEUR -->
<g id="node3" class="node"><title>FOURNISSEUR</title>
<ellipse fill="none" stroke="black" cx="163" cy="-18" rx="70.2668" ry="18"/>
<text text-anchor="middle" x="163" y="-14.3" font-family="Times,serif" font-size="14.00">FOURNISSEUR</text>
</g>
<!-- CUISINIER&#45;&gt;FOURNISSEUR -->
<g id="edge2" class="edge"><title>CUISINIER&#45;&gt;FOURNISSEUR</title>
<path fill="none" stroke="black" d="M121.776,-89.5461C128.566,-83.9586 135.665,-77.2294 141,-70 146.373,-62.7186 150.763,-53.9223 154.169,-45.7002"/>
<polygon fill="black" stroke="black" points="157.539,-46.6869 157.835,-36.0962 150.999,-44.1905 157.539,-46.6869"/>
<text text-anchor="middle" x="225" y="-58.3" font-family="Times,serif" font-size="14.00">2. commande(SAUCISSE)</text>
</g>
</g>
</svg>
